<svg width="23" height="18" viewBox="0 0 23 18" fill="none" xmlns="http://www.w3.org/2000/svg">
<path d="M2.492 2.353C2.4495 1.129 3.403 0 4.6925 0H17.9025C19.1915 0 20.1455 1.129 20.103 2.353C20.062 3.529 20.115 5.052 20.4985 6.294C20.883 7.54 21.5315 8.3275 22.5935 8.4285V9.576C21.5315 9.677 20.883 10.4645 20.4985 11.7105C20.115 12.9525 20.062 14.4755 20.103 15.6515C20.1455 16.8755 19.192 18.0045 17.9025 18.0045H4.6925C3.4035 18.0045 2.4495 16.8755 2.4925 15.6515C2.5335 14.4755 2.48 12.9525 2.097 11.7105C1.7125 10.4645 1.0625 9.677 0 9.576V8.4285C1.062 8.3275 1.7125 7.54 2.097 6.294C2.48 5.0525 2.533 3.529 2.492 2.353Z" fill="#6C19FF"/>
<path d="M12.1175 14.0155C14.3005 14.0155 15.616 12.9465 15.616 11.1835C15.616 9.851 14.6775 8.886 13.2835 8.7335V8.678C14.3075 8.5115 15.111 7.5605 15.111 6.4985C15.111 4.9855 13.9165 4 12.096 4H8V14.0155H12.1175ZM9.5935 5.27H11.7125C12.8645 5.27 13.5185 5.7835 13.5185 6.7135C13.5185 7.706 12.7575 8.2615 11.378 8.2615H9.593L9.5935 5.27ZM9.5935 12.745V9.448H11.6985C13.206 9.448 13.988 10.003 13.988 11.086C13.988 12.1685 13.227 12.745 11.791 12.745H9.5935Z" fill="url(#paint0_linear_45_16)"/>
<defs>
<linearGradient id="paint0_linear_45_16" x1="8.5195" y1="4.778" x2="13.1355" y2="12.584" gradientUnits="userSpaceOnUse">
<stop stop-color="white"/>
<stop offset="1" stop-color="#F1E5FC"/>
</linearGradient>
</defs>
</svg>
