<svg width="24" height="22" viewBox="0 0 24 22" fill="none" xmlns="http://www.w3.org/2000/svg">
<path d="M23.9722 5.67273C23.9662 5.65072 23.955 5.63166 23.9468 5.61039C23.9326 5.57086 23.9151 5.53259 23.8942 5.49599C23.8571 5.44334 23.8166 5.39312 23.7728 5.34566C23.7518 5.32685 23.7298 5.30922 23.7067 5.29286C23.6869 5.27516 23.6661 5.25851 23.6445 5.24299L23.6115 5.22832L23.5853 5.21072L19.0853 3.0107C18.9811 2.95984 18.8664 2.93336 18.75 2.93336C18.6336 2.93336 18.5189 2.95984 18.4147 3.0107L13.9147 5.21072L13.8885 5.22832L13.8555 5.24299C13.8339 5.25851 13.8131 5.27516 13.7933 5.29286C13.7377 5.3303 13.6901 5.37786 13.653 5.43292C13.6359 5.45309 13.6198 5.47414 13.605 5.49599C13.5844 5.53261 13.5671 5.57089 13.5532 5.61039C13.5457 5.63166 13.5338 5.65072 13.5278 5.67273C13.5096 5.736 13.5003 5.80136 13.5 5.86706V9.8139L10.5 11.2806V2.9337C10.4997 2.868 10.4904 2.80264 10.4722 2.73937C10.4663 2.71737 10.455 2.6983 10.4467 2.67703C10.4326 2.6375 10.4151 2.59923 10.3942 2.56263C10.3797 2.5408 10.3639 2.51975 10.347 2.49956C10.3099 2.4445 10.2623 2.39694 10.2067 2.3595C10.1869 2.3418 10.1661 2.32515 10.1445 2.30963L10.1115 2.29496L10.0852 2.27736L5.58525 0.0773424C5.48115 0.0264791 5.36637 0 5.25 0C5.13363 0 5.01885 0.0264791 4.91475 0.0773424L0.41475 2.27736L0.3885 2.29496L0.3555 2.30963C0.333852 2.32515 0.313072 2.3418 0.29325 2.3595C0.270244 2.37586 0.248208 2.39349 0.22725 2.4123C0.199972 2.43944 0.174896 2.46862 0.15225 2.49956C0.135364 2.51975 0.119592 2.5408 0.105 2.56263C0.0844491 2.59925 0.0671362 2.63753 0.05325 2.67703C0.04575 2.6983 0.03375 2.71737 0.02775 2.73937C0.00963847 2.80264 0.000304942 2.868 0 2.9337L0 16.8672C7.43615e-05 17.0033 0.0389123 17.1368 0.112164 17.2525C0.185416 17.3683 0.290189 17.4619 0.41475 17.5228L4.91475 19.7228L9.41475 21.9228C9.42525 21.9279 9.43725 21.9265 9.44925 21.9309C9.54269 21.9763 9.64563 22 9.75 22C9.85437 22 9.95731 21.9763 10.0507 21.9309C10.062 21.9265 10.0747 21.9279 10.0852 21.9235L19.0853 17.5235C19.2099 17.4626 19.3148 17.3689 19.388 17.253C19.4613 17.137 19.5001 17.0034 19.5 16.8672V12.9203L23.5853 10.9227C23.7098 10.8618 23.8146 10.7683 23.8878 10.6525C23.9611 10.5367 23.9999 10.4033 24 10.2671V5.86706C23.9997 5.80136 23.9904 5.736 23.9722 5.67273ZM6.927 14.6671L10.0852 13.1227H10.086L14.25 11.087L17.073 12.4671L9.75 16.0473L6.927 14.6671ZM18 8.52028V11.2806L15 9.8139V7.0536L18 8.52028ZM18.75 4.48691L21.573 5.86706L18.75 7.24721L15.927 5.86706L18.75 4.48691ZM6 13.4806V5.58692L9 4.12024V12.0139L6 13.4806ZM5.25 1.55356L8.073 2.9337L5.25 4.31385L2.427 2.9337L5.25 1.55356ZM1.5 4.12024L4.5 5.58692V17.8806L1.5 16.414V4.12024ZM6 15.8537L9 17.3204V20.0807L6 18.614V15.8537ZM18 16.414L10.5 20.0807V17.3204L18 13.6537V16.414ZM22.5 9.8139L19.5 11.2806V8.52028L22.5 7.0536V9.8139Z" fill="#FF5252"/>
</svg>
