<svg width="24" height="14" viewBox="0 0 24 14" fill="none" xmlns="http://www.w3.org/2000/svg">
<path d="M12 0C8.79994 0 6.80062 1.55503 6 4.66636C7.19962 3.11115 8.60006 2.52797 10.1996 2.91682C11.1129 3.13813 11.7656 3.78202 12.4884 4.49555C13.6648 5.65626 15.0264 7 18 7C21.1999 7 23.1994 5.44479 24 2.33273C22.8 3.88873 21.4001 4.47221 19.8002 4.08318C18.8871 3.86169 18.2351 3.21798 17.5114 2.50445C16.3358 1.34374 14.9745 0 12 0ZM6 7C2.80012 7 0.800625 8.55521 0 11.6673C1.19987 10.1113 2.59975 9.52779 4.19963 9.91682C5.11294 10.1383 5.76562 10.782 6.48844 11.4955C7.66481 12.6563 9.02644 14 12 14C15.1999 14 17.1994 12.445 18 9.33364C16.8 10.8889 15.4001 11.4721 13.8002 11.0832C12.8871 10.8619 12.2351 10.218 11.5114 9.50445C10.3357 8.34374 8.9745 7 6 7Z" fill="#38BDF8"/>
</svg>
