<svg width="24" height="24" viewBox="0 0 24 24" fill="none" xmlns="http://www.w3.org/2000/svg">
<g clip-path="url(#clip0_15_991)">
<path d="M18.375 0H5.625C2.5184 0 0 2.5184 0 5.625V18.375C0 21.4816 2.5184 24 5.625 24H18.375C21.4816 24 24 21.4816 24 18.375V5.625C24 2.5184 21.4816 0 18.375 0Z" fill="#0073AA"/>
<path d="M3.95757 11.9994C3.95757 15.1827 5.80754 17.9337 8.4901 19.2374L4.65385 8.72649C4.19409 9.75632 3.95683 10.8716 3.95757 11.9994ZM17.4289 11.5936C17.4289 10.5997 17.0719 9.9114 16.7657 9.37561C16.358 8.71318 15.9758 8.15218 15.9758 7.48974C15.9758 6.75043 16.5366 6.0623 17.3263 6.0623C17.362 6.0623 17.3958 6.06671 17.4306 6.06868C15.9998 4.75786 14.0935 3.95752 11.9997 3.95752C9.19022 3.95752 6.71832 5.39902 5.28038 7.58246C5.469 7.58808 5.64685 7.59211 5.79788 7.59211C6.6391 7.59211 7.94119 7.48993 7.94119 7.48993C8.37469 7.46443 8.42588 8.10118 7.99275 8.15246C7.99275 8.15246 7.5571 8.20374 7.07232 8.22914L10.0009 16.9402L11.7608 11.6618L10.5079 8.22886C10.0748 8.20346 9.6646 8.15218 9.6646 8.15218C9.23119 8.12677 9.282 7.46414 9.71541 7.48974C9.71541 7.48974 11.0435 7.59174 11.8337 7.59174C12.6748 7.59174 13.977 7.48974 13.977 7.48974C14.4109 7.46414 14.4618 8.10089 14.0286 8.15218C14.0286 8.15218 13.592 8.20346 13.1081 8.22886L16.0145 16.8739L16.8166 14.1934C17.1643 13.081 17.4289 12.2821 17.4289 11.5936Z" fill="white"/>
<path d="M12.1409 12.703L9.72797 19.7146C10.4657 19.9318 11.2308 20.0422 11.9998 20.0422C12.9094 20.0425 13.8124 19.8883 14.6704 19.5863C14.6481 19.5511 14.6289 19.514 14.6132 19.4755L12.1409 12.703ZM19.0565 8.14111C19.093 8.41522 19.1111 8.69146 19.1107 8.96799C19.1107 9.78408 18.9582 10.7015 18.4991 11.8486L16.0426 18.9511C18.4335 17.5568 20.0417 14.9666 20.0417 11.9997C20.0418 10.6014 19.6847 9.28655 19.0565 8.14111Z" fill="white"/>
<path d="M11.9998 2.625C6.83063 2.625 2.625 6.83034 2.625 11.9994C2.625 17.1692 6.83063 21.3743 11.9998 21.3743C17.1687 21.3743 21.375 17.1692 21.375 11.9994C21.3748 6.83034 17.1687 2.625 11.9998 2.625ZM11.9998 20.9447C7.06763 20.9447 3.05484 16.9318 3.05484 11.9994C3.05484 7.06734 7.06753 3.05484 11.9998 3.05484C16.9317 3.05484 20.9442 7.06734 20.9442 11.9994C20.9442 16.9318 16.9317 20.9447 11.9998 20.9447Z" fill="white"/>
</g>
<defs>
<clipPath id="clip0_15_991">
<rect width="24" height="24" fill="white"/>
</clipPath>
</defs>
</svg>
